<svg width="185" height="30" viewBox="0 0 185 30" fill="none" xmlns="http://www.w3.org/2000/svg">
<path fill-rule="evenodd" clip-rule="evenodd" d="M19.7422 21.0103L31.8725 0L36.2331 2.51761L24.1028 23.5279L19.7422 21.0103Z" fill="black"/>
<path d="M42.0234 23.5279V0.516113H46.8101V9.16801H46.9561C47.1659 8.70358 47.4693 8.23165 47.8663 7.75224C48.2708 7.26534 48.7951 6.86084 49.4393 6.53873C50.091 6.20914 50.9001 6.04434 51.8664 6.04434C53.1248 6.04434 54.2859 6.37393 55.3496 7.03312C56.4133 7.68483 57.2635 8.66987 57.9002 9.98825C58.5369 11.2991 58.8553 12.9434 58.8553 14.921C58.8553 16.8461 58.5444 18.4716 57.9227 19.7975C57.3085 21.1159 56.4695 22.1159 55.4058 22.7975C54.3496 23.4717 53.166 23.8088 51.8551 23.8088C50.9263 23.8088 50.136 23.6552 49.4843 23.3481C48.8401 23.041 48.312 22.6552 47.9 22.1908C47.488 21.7189 47.1734 21.2432 46.9561 20.7638H46.7427V23.5279H42.0234ZM46.7089 14.8985C46.7089 15.9247 46.8513 16.8199 47.1359 17.5839C47.4206 18.348 47.8326 18.9435 48.3719 19.3705C48.9112 19.79 49.5667 19.9997 50.3382 19.9997C51.1173 19.9997 51.7765 19.7862 52.3158 19.3593C52.8552 18.9248 53.2634 18.3255 53.5406 17.5615C53.8252 16.7899 53.9675 15.9023 53.9675 14.8985C53.9675 13.9022 53.829 13.0258 53.5518 12.2692C53.2746 11.5126 52.8664 10.9209 52.3271 10.4939C51.7877 10.0669 51.1248 9.85342 50.3382 9.85342C49.5592 9.85342 48.9 10.0594 48.3607 10.4714C47.8288 10.8834 47.4206 11.4677 47.1359 12.2243C46.8513 12.9808 46.7089 13.8722 46.7089 14.8985Z" fill="black"/>
<path d="M65.2304 23.8538C64.1292 23.8538 63.148 23.6627 62.2865 23.2807C61.4251 22.8912 60.7434 22.3181 60.2415 21.5616C59.7471 20.7975 59.4999 19.8462 59.4999 18.7076C59.4999 17.7487 59.676 16.9435 60.028 16.2918C60.3801 15.6401 60.8595 15.1157 61.4663 14.7187C62.073 14.3217 62.7622 14.0221 63.5337 13.8198C64.3128 13.6176 65.1293 13.4752 65.9832 13.3928C66.987 13.288 67.796 13.1906 68.4103 13.1007C69.0245 13.0033 69.4702 12.861 69.7474 12.6737C70.0245 12.4864 70.1631 12.2093 70.1631 11.8422V11.7748C70.1631 11.0632 69.9384 10.5126 69.4889 10.1231C69.047 9.73356 68.4177 9.5388 67.6012 9.5388C66.7398 9.5388 66.0544 9.72982 65.545 10.1118C65.0356 10.4864 64.6986 10.9583 64.5338 11.5276L60.1067 11.1681C60.3314 10.1193 60.7734 9.21295 61.4326 8.44889C62.0917 7.67733 62.942 7.08556 63.9832 6.67356C65.0319 6.25408 66.2454 6.04434 67.6237 6.04434C68.5825 6.04434 69.5002 6.1567 70.3766 6.38142C71.2605 6.60615 72.0433 6.95447 72.725 7.42639C73.4141 7.89831 73.9572 8.50507 74.3542 9.24666C74.7512 9.98076 74.9497 10.8609 74.9497 11.8872V23.5279H70.4103V21.1346H70.2755C69.9983 21.6739 69.6275 22.1496 69.1631 22.5616C68.6986 22.9661 68.1406 23.2845 67.4889 23.5167C66.8372 23.7414 66.0844 23.8538 65.2304 23.8538ZM66.6012 20.5503C67.3054 20.5503 67.9271 20.4117 68.4664 20.1346C69.0058 19.8499 69.429 19.4679 69.7361 18.9885C70.0433 18.5091 70.1968 17.966 70.1968 17.3592V15.5277C70.047 15.6251 69.841 15.715 69.5788 15.7974C69.3241 15.8723 69.0357 15.9435 68.7136 16.0109C68.3915 16.0708 68.0694 16.127 67.7473 16.1794C67.4252 16.2244 67.1331 16.2656 66.8709 16.303C66.3091 16.3854 65.8184 16.5165 65.3989 16.6963C64.9795 16.8761 64.6536 17.1195 64.4214 17.4266C64.1892 17.7263 64.0731 18.1008 64.0731 18.5503C64.0731 19.202 64.309 19.7001 64.781 20.0447C65.2604 20.3818 65.8671 20.5503 66.6012 20.5503Z" fill="black"/>
<path d="M91.2829 11.1905L86.9008 11.4602C86.8259 11.0857 86.6648 10.7486 86.4177 10.4489C86.1705 10.1418 85.8446 9.89836 85.4401 9.71858C85.0431 9.53131 84.5674 9.43768 84.0131 9.43768C83.2715 9.43768 82.646 9.59498 82.1366 9.9096C81.6273 10.2167 81.3726 10.6287 81.3726 11.1456C81.3726 11.5576 81.5374 11.9059 81.867 12.1906C82.1966 12.4752 82.7621 12.7037 83.5636 12.876L86.6873 13.5052C88.3653 13.8498 89.6162 14.4041 90.4402 15.1682C91.2642 15.9322 91.6762 16.936 91.6762 18.1795C91.6762 19.3106 91.3429 20.3031 90.6762 21.1571C90.017 22.011 89.1106 22.6777 87.957 23.1571C86.8109 23.629 85.4888 23.865 83.9906 23.865C81.7059 23.865 79.8857 23.3893 78.5298 22.438C77.1815 21.4792 76.3912 20.1758 76.159 18.5278L80.867 18.2806C81.0093 18.9772 81.3539 19.5091 81.9007 19.8761C82.4475 20.2357 83.1479 20.4155 84.0019 20.4155C84.8408 20.4155 85.515 20.2544 86.0244 19.9323C86.5412 19.6027 86.8034 19.1795 86.8109 18.6626C86.8034 18.2282 86.6199 17.8723 86.2603 17.5952C85.9008 17.3105 85.3465 17.0933 84.5974 16.9435L81.6085 16.348C79.9231 16.0109 78.6684 15.4266 77.8444 14.5951C77.0279 13.7636 76.6197 12.7037 76.6197 11.4153C76.6197 10.3066 76.9193 9.35153 77.5186 8.55001C78.1253 7.7485 78.9755 7.13051 80.0692 6.69604C81.1703 6.26157 82.4588 6.04434 83.9344 6.04434C86.1143 6.04434 87.8297 6.50502 89.0806 7.42639C90.3391 8.34776 91.0732 9.60248 91.2829 11.1905Z" fill="black"/>
<path d="M97.7367 13.5501V23.5279H92.9501V0.516113H97.6019V9.31408H97.8041C98.1936 8.29533 98.8229 7.49755 99.6918 6.92076C100.561 6.33648 101.651 6.04434 102.962 6.04434C104.16 6.04434 105.205 6.30652 106.096 6.83087C106.995 7.34774 107.692 8.09307 108.186 9.06688C108.688 10.0332 108.935 11.1905 108.928 12.5389V23.5279H104.141V13.3928C104.149 12.3291 103.879 11.5014 103.332 10.9096C102.793 10.3178 102.036 10.022 101.063 10.022C100.411 10.022 99.8341 10.1605 99.3322 10.4377C98.8378 10.7149 98.4483 11.1194 98.1637 11.6512C97.8865 12.1756 97.7442 12.8085 97.7367 13.5501Z" fill="black"/>
<path d="M115.876 23.8538C114.775 23.8538 113.794 23.6627 112.932 23.2807C112.071 22.8912 111.389 22.3181 110.887 21.5616C110.393 20.7975 110.146 19.8462 110.146 18.7076C110.146 17.7487 110.322 16.9435 110.674 16.2918C111.026 15.6401 111.505 15.1157 112.112 14.7187C112.719 14.3217 113.408 14.0221 114.179 13.8198C114.958 13.6176 115.775 13.4752 116.629 13.3928C117.633 13.288 118.442 13.1906 119.056 13.1007C119.67 13.0033 120.116 12.861 120.393 12.6737C120.67 12.4864 120.809 12.2093 120.809 11.8422V11.7748C120.809 11.0632 120.584 10.5126 120.135 10.1231C119.693 9.73356 119.063 9.5388 118.247 9.5388C117.386 9.5388 116.7 9.72982 116.191 10.1118C115.681 10.4864 115.344 10.9583 115.179 11.5276L110.752 11.1681C110.977 10.1193 111.419 9.21295 112.078 8.44889C112.737 7.67733 113.588 7.08556 114.629 6.67356C115.678 6.25408 116.891 6.04434 118.269 6.04434C119.228 6.04434 120.146 6.1567 121.022 6.38142C121.906 6.60615 122.689 6.95447 123.371 7.42639C124.06 7.89831 124.603 8.50507 125 9.24666C125.397 9.98076 125.595 10.8609 125.595 11.8872V23.5279H121.056V21.1346H120.921C120.644 21.6739 120.273 22.1496 119.809 22.5616C119.344 22.9661 118.786 23.2845 118.135 23.5167C117.483 23.7414 116.73 23.8538 115.876 23.8538ZM117.247 20.5503C117.951 20.5503 118.573 20.4117 119.112 20.1346C119.651 19.8499 120.075 19.4679 120.382 18.9885C120.689 18.5091 120.843 17.966 120.843 17.3592V15.5277C120.693 15.6251 120.487 15.715 120.225 15.7974C119.97 15.8723 119.681 15.9435 119.359 16.0109C119.037 16.0708 118.715 16.127 118.393 16.1794C118.071 16.2244 117.779 16.2656 117.517 16.303C116.955 16.3854 116.464 16.5165 116.045 16.6963C115.625 16.8761 115.299 17.1195 115.067 17.4266C114.835 17.7263 114.719 18.1008 114.719 18.5503C114.719 19.202 114.955 19.7001 115.427 20.0447C115.906 20.3818 116.513 20.5503 117.247 20.5503Z" fill="black"/>
<path d="M130.973 23.5279L126.277 6.26906H131.119L133.794 17.8648H133.951L136.738 6.26906H141.49L144.322 17.7974H144.468L147.097 6.26906H151.929L147.243 23.5279H142.176L139.209 12.6737H138.996L136.03 23.5279H130.973Z" fill="black"/>
<path d="M157.664 23.8538C156.562 23.8538 155.581 23.6627 154.72 23.2807C153.858 22.8912 153.177 22.3181 152.675 21.5616C152.18 20.7975 151.933 19.8462 151.933 18.7076C151.933 17.7487 152.109 16.9435 152.461 16.2918C152.813 15.6401 153.293 15.1157 153.899 14.7187C154.506 14.3217 155.195 14.0221 155.967 13.8198C156.746 13.6176 157.562 13.4752 158.416 13.3928C159.42 13.288 160.229 13.1906 160.843 13.1007C161.458 13.0033 161.903 12.861 162.18 12.6737C162.458 12.4864 162.596 12.2093 162.596 11.8422V11.7748C162.596 11.0632 162.372 10.5126 161.922 10.1231C161.48 9.73356 160.851 9.5388 160.034 9.5388C159.173 9.5388 158.488 9.72982 157.978 10.1118C157.469 10.4864 157.132 10.9583 156.967 11.5276L152.54 11.1681C152.765 10.1193 153.206 9.21295 153.866 8.44889C154.525 7.67733 155.375 7.08556 156.416 6.67356C157.465 6.25408 158.679 6.04434 160.057 6.04434C161.016 6.04434 161.933 6.1567 162.81 6.38142C163.694 6.60615 164.476 6.95447 165.158 7.42639C165.847 7.89831 166.39 8.50507 166.787 9.24666C167.184 9.98076 167.383 10.8609 167.383 11.8872V23.5279H162.843V21.1346H162.709C162.431 21.6739 162.061 22.1496 161.596 22.5616C161.132 22.9661 160.574 23.2845 159.922 23.5167C159.27 23.7414 158.517 23.8538 157.664 23.8538ZM159.034 20.5503C159.738 20.5503 160.36 20.4117 160.9 20.1346C161.439 19.8499 161.862 19.4679 162.169 18.9885C162.476 18.5091 162.63 17.966 162.63 17.3592V15.5277C162.48 15.6251 162.274 15.715 162.012 15.7974C161.757 15.8723 161.469 15.9435 161.147 16.0109C160.825 16.0708 160.503 16.127 160.18 16.1794C159.858 16.2244 159.566 16.2656 159.304 16.303C158.742 16.3854 158.252 16.5165 157.832 16.6963C157.413 16.8761 157.087 17.1195 156.855 17.4266C156.622 17.7263 156.506 18.1008 156.506 18.5503C156.506 19.202 156.742 19.7001 157.214 20.0447C157.693 20.3818 158.3 20.5503 159.034 20.5503Z" fill="black"/>
<path d="M171.693 30C171.087 30 170.517 29.9513 169.985 29.8539C169.461 29.764 169.027 29.6479 168.682 29.5056L169.761 25.9325C170.322 26.1047 170.828 26.1984 171.278 26.2134C171.734 26.2283 172.128 26.1235 172.457 25.8987C172.794 25.674 173.068 25.292 173.278 24.7527L173.559 24.0223L167.367 6.26906H172.401L175.974 18.9435H176.154L179.761 6.26906H184.828L178.12 25.3931C177.798 26.322 177.36 27.131 176.806 27.8201C176.259 28.5168 175.566 29.0524 174.727 29.4269C173.888 29.809 172.877 30 171.693 30Z" fill="black"/>
<path d="M0 15.5828C0 11.1587 3.58646 7.57227 8.01057 7.57227C12.4347 7.57227 16.0211 11.1587 16.0211 15.5828C16.0211 20.0069 12.4347 23.5934 8.01057 23.5934C3.58646 23.5934 0 20.0069 0 15.5828Z" fill="#FF0000"/>
</svg>
