<svg width="460" height="460" viewBox="0 0 460 460" fill="red" xmlns="http://www.w3.org/2000/svg">
    <rect x="30" y="30" width="400" height="400" rx="120" fill="red" />
    <path
        d="M130.977 289 61 229.948 130.977 171l16.197 16.426-51.497 42.314 51.497 42.834L130.977 289Z"
        fill="#fff" />
    <path
        d="M230.943 282.554a79.2 79.2 0 0 1-15.47 4.471c-5.33.97-10.901 1.455-16.716 1.455-8.375 0-15.885-1.143-22.529-3.431-6.645-2.287-12.286-5.683-16.924-10.188-4.637-4.505-8.202-10.085-10.693-16.739-2.423-6.653-3.634-14.347-3.634-23.08 0-8.456 1.315-16.114 3.945-22.976 2.699-6.862 6.472-12.718 11.317-17.57s10.659-8.594 17.442-11.228c6.853-2.634 14.466-3.951 22.841-3.951 6.853 0 12.598.381 17.235 1.144 4.707.693 8.929 1.594 12.667 2.703v24.64c-4.292-2.149-8.964-3.813-14.017-4.991-4.983-1.178-9.724-1.767-14.223-1.767-4.707 0-8.929.797-12.667 2.391-3.738 1.594-6.887 3.812-9.448 6.654-2.561 2.841-4.533 6.307-5.918 10.396-1.315 4.02-1.972 8.456-1.972 13.308 0 5.059.726 9.599 2.18 13.619 1.453 4.02 3.495 7.451 6.125 10.293 2.7 2.772 5.918 4.921 9.656 6.445 3.738 1.456 7.891 2.184 12.459 2.184 2.215 0 4.534-.139 6.956-.416a86.315 86.315 0 0 0 7.372-1.352 111.628 111.628 0 0 0 7.267-2.079 68.925 68.925 0 0 0 6.749-2.495v22.56Zm39.436-102.613c2.63 0 5.087.485 7.372 1.455 2.284.971 4.256 2.322 5.918 4.055 1.661 1.664 2.976 3.639 3.945 5.926.969 2.287 1.453 4.713 1.453 7.278 0 2.633-.484 5.094-1.453 7.381-.969 2.287-2.284 4.263-3.945 5.926-1.662 1.664-3.634 2.98-5.918 3.951-2.285.97-4.742 1.455-7.372 1.455s-5.087-.485-7.371-1.455a20.117 20.117 0 0 1-5.918-3.951c-1.662-1.663-2.977-3.639-3.946-5.926-.969-2.287-1.453-4.748-1.453-7.381 0-2.565.484-4.991 1.453-7.278.969-2.287 2.284-4.262 3.946-5.926a19.173 19.173 0 0 1 5.918-4.055c2.284-.97 4.741-1.455 7.371-1.455Zm0 71.632c2.63 0 5.087.485 7.372 1.455 2.284.971 4.256 2.287 5.918 3.951 1.661 1.663 2.976 3.639 3.945 5.926.969 2.287 1.453 4.713 1.453 7.277 0 2.634-.484 5.095-1.453 7.382-.969 2.287-2.284 4.297-3.945 6.03-1.662 1.663-3.634 2.98-5.918 3.95-2.285.971-4.742 1.456-7.372 1.456s-5.087-.485-7.371-1.456a20.114 20.114 0 0 1-5.918-3.95c-1.662-1.733-2.977-3.743-3.946-6.03-.969-2.287-1.453-4.748-1.453-7.382 0-2.564.484-4.99 1.453-7.277.969-2.287 2.284-4.263 3.946-5.926a20.117 20.117 0 0 1 5.918-3.951c2.284-.97 4.741-1.455 7.371-1.455ZM329.023 171 399 229.948 329.023 289l-16.093-16.426 51.393-42.418-51.393-42.73L329.023 171Z"
        fill="#fff" />
</svg>